<?xml version="1.0" encoding="utf-8" standalone="no"?>
<!DOCTYPE svg PUBLIC "-//W3C//DTD SVG 1.1//EN" "http://www.w3.org/Graphics/SVG/1.1/DTD/svg11.dtd">
<svg xmlns="http://www.w3.org/2000/svg" xmlns:xlink="http://www.w3.org/1999/xlink" version="1.1"
	width="280"
	height="459"
	xmlns:dc="http://purl.org/dc/elements/1.1/">
<defs>
  <style type="text/css">
   <![CDATA[
    text {
        font-family: Helvetica,Arial;
        font-size: 10pt;
    }
    rect {
    	fill:		rgb(255,255,255);
    	stroke:	rgb(0,0,0);
    	stroke-width:			1;
    }
    line {
    	fill:		rgb(255,255,255);
    	stroke:	rgb(0,0,0);
    	stroke-width:		1;
		}
   	path {
    	fill:		rgb(255,255,255);
    	stroke:	rgb(0,0,0);
    	stroke-width:		1;
    }
   ]]>
  </style>

  <marker id="circle" markerWidth="20"  orient="auto"  markerHeight="20"  refx="14" refy="10">
    <circle cx="10" cy="10" r="4" stroke="black" fill="white"/>
  </marker>

  <path id="arrow" d="M-2,0 l4,-5 l0,10 l-4,-5" stroke="black" fill="white" />

 </defs>

<rect x="20" y="20" width="160" height="25" />
<text transform="translate(40 20)" ><tspan x="0" dy="18" font-weight="900">Individual</tspan>
</text>
<rect x="20" y="45" width="160" height="28" />
<text transform="translate(40 45)" ><tspan  style="font-weight: 900; fill: red;" 	x="0" dy="18">id</tspan></text>
<rect x="20" y="93" width="160" height="25" />
<text transform="translate(40 93)" ><tspan x="0" dy="18" font-weight="900">BioSample</tspan>
</text>
<rect x="20" y="118" width="160" height="46" />
<text transform="translate(40 118)" ><tspan  style="font-weight: 900; fill: red;" 	x="0" dy="18">id</tspan><tspan  font-style="italic" style="" 	x="0" dy="18">individualId</tspan></text>
<rect x="20" y="184" width="160" height="25" />
<text transform="translate(40 184)" ><tspan x="0" dy="18" font-weight="900">Experiment</tspan>
</text>
<rect x="20" y="209" width="160" height="28" />
<text transform="translate(40 209)" ><tspan  style="font-weight: 900; fill: red;" 	x="0" dy="18">id</tspan></text>
<rect x="20" y="257" width="160" height="25" />
<text transform="translate(40 257)" ><tspan x="0" dy="18" font-weight="900">Analysis</tspan>
</text>
<rect x="20" y="282" width="160" height="28" />
<text transform="translate(40 282)" ><tspan  style="font-weight: 900; fill: red;" 	x="0" dy="18">id</tspan></text>
<line stroke-dasharray="5, 5"
x1="20"
y1="330"
x2="180"
y2="330"
/>
<rect x="20" y="350" width="160" height="25" />
<text transform="translate(40 350)" ><tspan x="0" dy="18" font-weight="900">OtherGA4GHobject</tspan>
</text>
<rect x="20" y="375" width="160" height="64" />
<text transform="translate(40 375)" ><tspan  style="font-weight: 900; fill: red;" 	x="0" dy="18">id</tspan><tspan  font-style="italic" style="" 	x="0" dy="18">bioSampleId</tspan><tspan  font-style="italic" style="" 	x="0" dy="18">experimentId</tspan></text>
<path d="
M180,55
L230,55
L230,149
L180,149"
style="fill: none;  "

/>
<use xlink:href="#arrow" x="205" y="55" />
<use xlink:href="#arrow" x="205" y="149"
transform="rotate(180 205 149)" />

<path d="
M180,221
L210,221
L210,424
L180,424"
style="fill: none;  "

/>
<use xlink:href="#arrow" x="195" y="221" />
<use xlink:href="#arrow" x="195" y="424"
transform="rotate(180 195 424)" />

<path d="
M180,132
L235,132
L235,406
L180,406"
style="fill: none;  "

/>
<use xlink:href="#arrow" x="207.5" y="132" />
<use xlink:href="#arrow" x="207.5" y="406"
transform="rotate(180 207.5 406)" />

</svg>
