<?xml version="1.0" encoding="utf-8" standalone="no"?>
<!DOCTYPE svg PUBLIC "-//W3C//DTD SVG 1.1//EN" "http://www.w3.org/Graphics/SVG/1.1/DTD/svg11.dtd">
<svg xmlns="http://www.w3.org/2000/svg" xmlns:xlink="http://www.w3.org/1999/xlink" version="1.1"
	width="240"
	height="295"
	xmlns:dc="http://purl.org/dc/elements/1.1/">
<defs>
  <style type="text/css">
   <![CDATA[
    text {
        font-family: Helvetica,Arial;
        font-size: 10pt;
    }
    rect {
    	fill:		rgb(255,255,255);
    	stroke:	rgb(0,0,0);
    	stroke-width:			1;
    }
    line {
    	fill:		rgb(255,255,255);
    	stroke:	rgb(0,0,0);
    	stroke-width:		1;
		}
   	path {
    	fill:		rgb(255,255,255);
    	stroke:	rgb(0,0,0);
    	stroke-width:		1;
    }
   ]]>
  </style>

  <marker id="circle" markerWidth="20"  orient="auto"  markerHeight="20"  refx="14" refy="10">
    <circle cx="10" cy="10" r="4" stroke="black" fill="white"/>
  </marker>

  <path id="arrow" d="M-2,0 l4,-5 l0,10 l-4,-5" stroke="black" fill="white" />

 </defs>

<rect x="20" y="20" width="160" height="25" />
<text transform="translate(40 20)" ><tspan x="0" dy="18" font-weight="900">Individual</tspan>
</text>
<rect x="20" y="45" width="160" height="28" />
<text transform="translate(40 45)" ><tspan  style="font-weight: 900; fill: red;" 	x="0" dy="18">id</tspan></text>
<rect x="20" y="93" width="160" height="25" />
<text transform="translate(40 93)" ><tspan x="0" dy="18" font-weight="900">Biosample</tspan>
</text>
<rect x="20" y="118" width="160" height="46" />
<text transform="translate(40 118)" ><tspan  style="font-weight: 900; fill: red;" 	x="0" dy="18">id</tspan><tspan  font-style="italic" style="" 	x="0" dy="18">individualId</tspan></text>
<line stroke-dasharray="5, 5"
x1="20"
y1="184"
x2="180"
y2="184"
/>
<rect x="20" y="204" width="160" height="25" />
<text transform="translate(40 204)" ><tspan x="0" dy="18" font-weight="900">OtherGA4GHobject</tspan>
</text>
<rect x="20" y="229" width="160" height="46" />
<text transform="translate(40 229)" ><tspan  style="font-weight: 900; fill: red;" 	x="0" dy="18">id</tspan><tspan  font-style="italic" style="" 	x="0" dy="18">biosampleId</tspan></text>
<path d="
M180,128
L195,128
L195,260
L180,260"
style="fill: none;  "

/>
<use xlink:href="#arrow" x="187.5" y="128" />
<use xlink:href="#arrow" x="187.5" y="260"
transform="rotate(180 187.5 260)" />

<path d="
M180,55
L210,55
L210,149
L180,149"
style="fill: none;  "

/>
<use xlink:href="#arrow" x="195" y="55" />
<use xlink:href="#arrow" x="195" y="149"
transform="rotate(180 195 149)" />

</svg>
